<svg width="179" height="43" viewBox="0 0 179 43" fill="none" xmlns="http://www.w3.org/2000/svg">
<path d="M12.4379 8.92273C5.55431 8.92273 0 14.2384 0 21.5V41.1015C0 42.1457 0.807037 43 1.89891 43C2.99078 43 3.79782 42.1457 3.79782 41.1015V30.2329C5.88662 32.5585 9.06729 34.0773 12.6752 34.0773C19.6537 34.0773 24.9707 28.5243 24.9707 21.5C24.9707 14.4757 19.6537 8.92273 12.4379 8.92273ZM12.4379 30.5651C7.59564 30.5651 3.79782 26.6258 3.79782 21.5C3.79782 16.3742 7.59564 12.4349 12.4379 12.4349C17.2801 12.4349 21.1254 16.3742 21.1254 21.5C21.1254 26.6258 17.2801 30.5651 12.4379 30.5651Z" fill="white"/>
<path d="M33.6582 0C32.5663 0 31.7593 0.854305 31.7593 1.89845V32.0364C31.7593 33.128 32.5663 33.9823 33.6582 33.9823C34.7501 33.9823 35.5571 33.128 35.5571 32.0364V1.89845C35.5571 0.854305 34.7026 0 33.6582 0Z" fill="white"/>
<path d="M65.3698 9.01765C64.3254 9.01765 63.4709 9.87196 63.4709 10.9161V12.7196C61.2397 10.394 58.154 8.92273 54.5935 8.92273C47.615 8.92273 42.2981 14.4757 42.2981 21.5C42.2981 28.5243 47.615 34.0773 54.5935 34.0773C58.154 34.0773 61.2397 32.6534 63.4709 30.2803V32.0364C63.4709 33.128 64.3254 33.9823 65.3698 33.9823C66.4142 33.9823 67.2688 33.128 67.2688 32.0364V10.9161C67.2688 9.87196 66.4617 9.01765 65.3698 9.01765ZM63.4709 21.8797C63.281 26.8157 59.5307 30.5651 54.8309 30.5651C50.1311 30.5651 46.1434 26.6258 46.1434 21.5C46.1434 16.3742 49.9887 12.4349 54.8309 12.4349C59.6731 12.4349 63.281 16.1843 63.4709 21.1203V21.8797Z" fill="white"/>
<path d="M95.895 9.01767C95.3253 9.01767 94.9455 9.25498 94.5657 9.68213L79.8017 27.2903V10.9161C79.8017 9.87197 78.9472 9.01767 77.9028 9.01767C76.8584 9.01767 76.0039 9.87197 76.0039 10.9161V31.8466L69.0254 40.1049C68.7406 40.4371 68.5981 40.8642 68.5981 41.2439C68.5981 42.2406 69.4052 43 70.4021 43C70.9718 43 71.3516 42.7627 71.7314 42.3356L97.2717 11.9128C97.5565 11.5806 97.6989 11.1534 97.6989 10.7737C97.6989 9.77705 96.8919 9.01767 95.895 9.01767Z" fill="white"/>
<path d="M122.492 0C121.447 0 120.593 0.854305 120.593 1.89845V12.7196C118.362 10.394 115.276 8.92274 111.715 8.92274C104.737 8.92274 99.4199 14.4757 99.4199 21.5C99.4199 28.5243 104.737 34.0773 111.715 34.0773C115.276 34.0773 118.362 32.6534 120.593 30.2804V32.0364C120.593 33.128 121.447 33.9823 122.492 33.9823C123.536 33.9823 124.391 33.128 124.391 32.0364V1.89845C124.391 0.854305 123.584 0 122.492 0ZM120.593 21.8797C120.403 26.8157 116.653 30.5651 111.953 30.5651C107.253 30.5651 103.265 26.6258 103.265 21.5C103.265 16.3742 107.111 12.4349 111.953 12.4349C116.795 12.4349 120.403 16.1843 120.593 21.1203V21.8797Z" fill="white"/>
<path d="M133.933 28.9514C132.508 28.9514 131.417 30.0431 131.417 31.4669C131.417 32.8907 132.508 33.9824 133.933 33.9824C135.357 33.9824 136.401 32.8433 136.401 31.4669C136.401 30.0905 135.309 28.9514 133.933 28.9514Z" fill="white"/>
<path d="M145.326 9.01767C144.234 9.01767 143.427 9.87197 143.427 10.9161V32.0364C143.427 33.128 144.234 33.9823 145.326 33.9823C146.418 33.9823 147.225 33.128 147.225 32.0364V10.9161C147.225 9.87197 146.37 9.01767 145.326 9.01767Z" fill="white"/>
<path d="M145.326 1.13907C143.997 1.13907 142.952 2.18322 142.952 3.51214C142.952 4.84106 143.997 5.88521 145.326 5.88521C146.655 5.88521 147.7 4.79359 147.7 3.51214C147.7 2.23068 146.608 1.13907 145.326 1.13907Z" fill="white"/>
<path d="M179 21.4288C179 14.2542 173.667 8.92273 166.539 8.92273H166.499C166.135 8.92273 165.779 8.94646 165.423 8.9781C165.352 8.9781 165.28 8.9781 165.217 8.98601C164.996 9.00974 164.79 9.04929 164.568 9.08093C164.355 9.11257 164.133 9.13631 163.92 9.17586C163.896 9.17586 163.872 9.18377 163.848 9.19168C160.581 9.84823 157.859 11.6992 156.126 14.3254C154.757 16.3504 153.958 18.8184 153.958 21.5C153.958 28.5243 159.37 34.0773 166.491 34.0773C169.442 34.0773 172.085 33.1122 174.174 31.4985C177.149 29.252 178.992 25.6608 178.992 21.4288H179ZM161.467 26.9581V15.9391C161.467 14.5706 162.954 13.7163 164.141 14.3966L173.683 19.9021C174.87 20.5903 174.87 22.2989 173.683 22.9871L164.141 28.4926C162.954 29.1808 161.467 28.3186 161.467 26.9501V26.9581Z" fill="white"/>
</svg>
